<svg version="1.1" xmlns="http://www.w3.org/2000/svg" xmlns:xlink="http://www.w3.org/1999/xlink" width="48" height="48"><defs><linearGradient x1="14.22989" y1="14.71679" x2="54.98331" y2="54.4964" gradientUnits="userSpaceOnUse" id="color-1"><stop offset="0" stop-color="#000000" stop-opacity="0.3"></stop><stop offset="1" stop-color="#000000" stop-opacity="0"></stop></linearGradient><filter id="dropshadow-base"><feColorMatrix type="matrix" values="0 0 0 0 0  0 0 0 0 0  0 0 0 0 0  0 0 0 .8 0"></feColorMatrix> <feOffset dx="0" dy="1"></feOffset> <feGaussianBlur stdDeviation="1"></feGaussianBlur> <feComposite in="SourceGraphic"></feComposite></filter><filter id="dropshadow-banner" x="-10%" y="-10%" width="120%" height="130%"><feColorMatrix type="matrix" values="0 0 0 0 0  0 0 0 0 0  0 0 0 0 0  0 0 0 .4 0"></feColorMatrix> <feOffset dx="0" dy="1"></feOffset> <feGaussianBlur stdDeviation="0.5"></feGaussianBlur> <feComposite in="SourceGraphic"></feComposite></filter></defs><g fill="none" fill-rule="nonzero" stroke="none" stroke-width="none" stroke-linecap="butt" stroke-linejoin="miter" stroke-miterlimit="10" stroke-dasharray="" stroke-dashoffset="0" font-family="none" font-weight="none" font-size="none" text-anchor="none" style="mix-blend-mode: normal"><path d="M7,43c-1.10457,0 -2,-0.89543 -2,-2v-34c0,-1.10457 0.89543,-2 2,-2h34c1.10457,0 2,0.89543 2,2v34c0,1.10457 -0.89543,2 -2,2z" id="base 1 5" fill="#a82d34" stroke-width="1"></path><path d="M18.39954,19.34024l3.46209,3.46209c0.2584,-0.22106 0.54138,-0.41418 0.84794,-0.54814l-3.36774,-3.36774c-0.44201,-0.44201 -0.7154,-1.05264 -0.7154,-1.72713c0,-1.34897 1.09356,-2.44253 2.44253,-2.44253l2.44253,2.44253c0,-0.67448 -0.27339,-1.28512 -0.7154,-1.72713l1.69265,1.69265c0.01844,-1.33308 1.10483,-2.40805 2.44229,-2.40805c0.67448,0 1.28512,0.27339 1.72713,0.7154l3.26603,3.26603c0.43482,0.10915 0.82338,0.33488 1.13052,0.64202c0,0 0,0 0,0l9.94529,9.94529v11.71447c0,1.10457 -0.89543,2 -2,2h-13.41113l-10.51522,-10.51522c-0.42498,-0.42498 -0.70276,-0.96114 -0.85554,-1.49587c-0.2713,-1.90376 1.15488,-3.28797 2.40015,-4.52145l-3.67296,-3.67296c-0.44201,-0.44201 -0.7154,-1.05264 -0.7154,-1.72713c0,-1.34897 1.09356,-2.44253 2.44253,-2.44253c0.67448,0 1.28512,0.27339 1.72713,0.7154z" fill="url(#color-1)" stroke-width="1"></path><path d="M14.22989,21.06737c0,-1.34897 1.09356,-2.44253 2.44253,-2.44253c1.34897,0 2.44253,1.09356 2.44253,2.44253c0,1.34897 -1.09356,2.44253 -2.44253,2.44253c-1.34897,0 -2.44253,-1.09356 -2.44253,-2.44253zM18.62644,17.15933c0,-1.34897 1.09356,-2.44253 2.44253,-2.44253c1.34897,0 2.44253,1.09356 2.44253,2.44253c0,1.34897 -1.09356,2.44253 -2.44253,2.44253c-1.34897,0 -2.44253,-1.09356 -2.44253,-2.44253zM24.48851,17.15933c0,-1.34897 1.09356,-2.44253 2.44253,-2.44253c1.34897,0 2.44253,1.09356 2.44253,2.44253c0,1.34897 -1.09356,2.44253 -2.44253,2.44253c-1.34897,0 -2.44253,-1.09356 -2.44253,-2.44253zM28.88505,21.06737c0,-1.34897 1.09356,-2.44253 2.44253,-2.44253c1.34897,0 2.44253,1.09356 2.44253,2.44253c0,1.34897 -1.09356,2.44253 -2.44253,2.44253c-1.34897,0 -2.44253,-1.09356 -2.44253,-2.44253zM31.78189,30.98891c-0.28822,0.99655 -1.00144,1.98822 -2.28132,2.27155c-0.71322,0.14167 -2.98965,-0.425 -5.41264,-0.425c-0.02931,0 -0.05862,0.00489 -0.08793,0.00489c-0.02931,0 -0.05862,-0.00489 -0.08793,-0.00489c-2.42299,0 -4.69942,0.56667 -5.41264,0.425c-1.28477,-0.28333 -1.99799,-1.27988 -2.28132,-2.27155c-0.28333,-1.98822 1.28477,-3.40977 2.56465,-4.68477c0.85488,-0.99167 1.5681,-1.84655 2.42299,-2.83822c0.45431,-0.52759 1.02586,-1.06006 1.70488,-1.28965c0.10747,-0.0342 0.21494,-0.06351 0.32241,-0.08305c0.24914,-0.04885 0.51293,-0.04885 0.76695,-0.04885c0.25402,0 0.51782,0 0.76695,0.04885c0.11236,0.01954 0.21983,0.04885 0.32241,0.08305c0.67902,0.2296 1.25057,0.76207 1.70488,1.28965c0.85488,0.99167 1.5681,1.84655 2.42299,2.83822c1.28477,1.275 2.84799,2.69655 2.56465,4.68477z" fill="none" stroke-width="0"></path><path d="M14.22989,21.06737c0,-1.34897 1.09356,-2.44253 2.44253,-2.44253c1.34897,0 2.44253,1.09356 2.44253,2.44253c0,1.34897 -1.09356,2.44253 -2.44253,2.44253c-1.34897,0 -2.44253,-1.09356 -2.44253,-2.44253zM18.62644,17.15933c0,-1.34897 1.09356,-2.44253 2.44253,-2.44253c1.34897,0 2.44253,1.09356 2.44253,2.44253c0,1.34897 -1.09356,2.44253 -2.44253,2.44253c-1.34897,0 -2.44253,-1.09356 -2.44253,-2.44253zM24.48851,17.15933c0,-1.34897 1.09356,-2.44253 2.44253,-2.44253c1.34897,0 2.44253,1.09356 2.44253,2.44253c0,1.34897 -1.09356,2.44253 -2.44253,2.44253c-1.34897,0 -2.44253,-1.09356 -2.44253,-2.44253zM28.88505,21.06737c0,-1.34897 1.09356,-2.44253 2.44253,-2.44253c1.34897,0 2.44253,1.09356 2.44253,2.44253c0,1.34897 -1.09356,2.44253 -2.44253,2.44253c-1.34897,0 -2.44253,-1.09356 -2.44253,-2.44253zM31.78189,30.98891c-0.28822,0.99655 -1.00144,1.98822 -2.28132,2.27155c-0.71322,0.14167 -2.98965,-0.425 -5.41264,-0.425c-0.02931,0 -0.05862,0.00489 -0.08793,0.00489c-0.02931,0 -0.05862,-0.00489 -0.08793,-0.00489c-2.42299,0 -4.69942,0.56667 -5.41264,0.425c-1.28477,-0.28333 -1.99799,-1.27988 -2.28132,-2.27155c-0.28333,-1.98822 1.28477,-3.40977 2.56465,-4.68477c0.85488,-0.99167 1.5681,-1.84655 2.42299,-2.83822c0.45431,-0.52759 1.02586,-1.06006 1.70488,-1.28965c0.10747,-0.0342 0.21494,-0.06351 0.32241,-0.08305c0.24914,-0.04885 0.51293,-0.04885 0.76695,-0.04885c0.25402,0 0.51782,0 0.76695,0.04885c0.11236,0.01954 0.21983,0.04885 0.32241,0.08305c0.67902,0.2296 1.25057,0.76207 1.70488,1.28965c0.85488,0.99167 1.5681,1.84655 2.42299,2.83822c1.28477,1.275 2.84799,2.69655 2.56465,4.68477z" fill="#ffffff" stroke-width="0"></path><path d="M2,24c0,-12.15026 9.84974,-22 22,-22c12.15026,0 22,9.84974 22,22c0,12.15026 -9.84974,22 -22,22c-12.15026,0 -22,-9.84974 -22,-22z" id="base 1 1 1" fill="none" stroke-width="1"></path><g fill="#000000" stroke-width="1" font-family="Roboto, sans-serif" font-weight="normal" font-size="14" text-anchor="start"></g><path d="M13,36v-12h30v12z" id="banner 1" fill="#404041" stroke-width="1" filter="url(#dropshadow-banner)"></path><text x="28" y="33" fill="#ffffff" stroke-width="1" font-family="sans-serif" font-weight="bold" font-size="8" text-anchor="middle">BETA</text><rect x="2" y="2" width="44" height="22" fill="none" stroke-width="1"></rect><path d="M2,24v-22h44v22z" fill="none" stroke-width="1"></path><path d="M2,24v-22h44v22z" fill="none" stroke-width="1"></path><path d="M2,24v-22h44v22z" fill="none" stroke-width="1"></path><path d="M2,24v-22h44v22z" fill="none" stroke-width="1"></path></g></svg>