<svg id="svg" version="1.1" width="500" height="500" xmlns="http://www.w3.org/2000/svg" xmlns:xlink="http://www.w3.org/1999/xlink" style="display: block;"><g id="svgg"><path id="path0" d="M142.400 22.000 C 141.584 22.983,141.639 23.200,142.702 23.200 C 143.416 23.200,144.000 22.660,144.000 22.000 C 144.000 21.340,143.864 20.800,143.698 20.800 C 143.532 20.800,142.948 21.340,142.400 22.000 M256.000 22.000 C 256.000 22.660,256.584 23.200,257.298 23.200 C 258.361 23.200,258.416 22.983,257.600 22.000 C 257.052 21.340,256.468 20.800,256.302 20.800 C 256.136 20.800,256.000 21.340,256.000 22.000 M267.902 24.959 C 268.594 26.830,270.400 27.920,270.400 26.467 C 270.400 25.990,270.040 25.600,269.600 25.600 C 269.160 25.600,268.800 25.060,268.800 24.400 C 268.800 23.740,268.452 23.200,268.026 23.200 C 267.564 23.200,267.514 23.910,267.902 24.959 M130.400 25.600 C 129.765 25.992,129.512 26.579,129.837 26.903 C 130.161 27.228,130.847 27.073,131.360 26.560 C 132.569 25.351,131.894 24.677,130.400 25.600 M276.616 29.262 C 276.852 30.496,277.534 31.200,278.493 31.200 C 280.549 31.200,280.386 30.037,278.123 28.554 C 276.317 27.371,276.260 27.397,276.616 29.262 M121.400 28.864 C 119.520 29.959,119.626 31.200,121.600 31.200 C 122.667 31.200,123.200 30.667,123.200 29.600 C 123.200 27.765,123.251 27.786,121.400 28.864 M284.586 32.868 C 285.039 34.599,286.892 35.774,287.776 34.890 C 288.234 34.433,285.372 31.200,284.508 31.200 C 284.311 31.200,284.346 31.950,284.586 32.868 M112.533 33.333 C 111.519 34.348,112.006 35.200,113.600 35.200 C 114.489 35.200,115.200 34.667,115.200 34.000 C 115.200 32.782,113.508 32.359,112.533 33.333 M103.600 38.400 C 102.187 39.962,102.203 40.000,104.276 40.000 C 105.867 40.000,106.400 39.598,106.400 38.400 C 106.400 37.520,106.096 36.800,105.724 36.800 C 105.352 36.800,104.396 37.520,103.600 38.400 M293.600 38.400 C 293.600 39.598,294.133 40.000,295.724 40.000 C 297.797 40.000,297.813 39.962,296.400 38.400 C 295.604 37.520,294.648 36.800,294.276 36.800 C 293.904 36.800,293.600 37.520,293.600 38.400 M96.963 42.436 C 96.345 43.426,96.292 44.000,96.818 44.000 C 97.276 44.000,97.863 43.444,98.124 42.765 C 98.844 40.889,98.067 40.669,96.963 42.436 M305.954 45.367 C 306.199 46.007,306.400 46.815,306.400 47.163 C 306.400 47.511,307.820 48.023,309.556 48.300 C 311.487 48.609,313.189 49.485,313.938 50.554 C 314.612 51.516,315.441 52.006,315.782 51.642 C 316.122 51.279,315.950 50.820,315.400 50.624 C 314.850 50.427,314.400 49.757,314.400 49.133 C 314.400 48.510,314.025 48.000,313.567 48.000 C 313.108 48.000,311.999 47.316,311.103 46.481 C 308.986 44.509,305.320 43.716,305.954 45.367 M89.018 46.369 C 88.055 47.266,86.892 48.000,86.433 48.000 C 85.975 48.000,85.600 48.408,85.600 48.906 C 85.600 49.405,84.825 50.485,83.878 51.306 C 82.930 52.128,82.587 52.800,83.116 52.800 C 83.644 52.800,84.940 51.868,85.995 50.730 C 87.227 49.401,89.088 48.502,91.194 48.219 C 93.647 47.890,94.413 47.454,94.229 46.490 C 93.865 44.574,91.015 44.508,89.018 46.369 M317.400 52.530 C 317.950 52.752,318.400 53.803,318.400 54.867 C 318.400 56.267,318.841 56.800,320.000 56.800 C 320.880 56.800,321.600 56.301,321.600 55.692 C 321.600 54.599,318.250 51.940,317.028 52.063 C 316.683 52.098,316.850 52.308,317.400 52.530 M79.800 53.664 C 77.898 54.772,78.028 56.800,80.000 56.800 C 81.173 56.800,81.600 56.267,81.600 54.800 C 81.600 52.529,81.671 52.574,79.800 53.664 M73.600 57.988 C 69.954 60.031,48.800 82.096,48.800 83.856 C 48.800 84.765,48.137 85.980,47.327 86.555 C 46.517 87.130,45.408 88.441,44.862 89.468 C 44.317 90.496,42.306 92.879,40.394 94.764 C 38.258 96.870,36.588 99.416,36.062 101.368 C 35.592 103.116,34.485 105.199,33.603 105.997 C 32.722 106.795,32.000 108.049,32.000 108.785 C 32.000 109.520,31.142 110.927,30.094 111.912 C 29.046 112.896,27.975 115.029,27.714 116.651 C 27.443 118.339,26.565 120.020,25.660 120.582 C 24.766 121.137,23.848 122.875,23.546 124.582 C 23.253 126.242,22.298 128.170,21.424 128.866 C 20.404 129.678,19.683 131.471,19.413 133.866 C 19.181 135.920,18.688 137.600,18.317 137.600 C 17.064 137.600,15.200 142.297,15.200 145.452 C 15.200 147.388,14.580 149.373,13.576 150.648 C 12.454 152.075,11.689 154.867,11.099 159.691 C 10.630 163.529,9.754 167.160,9.154 167.760 C 6.030 170.884,5.431 239.614,8.491 243.754 C 9.806 245.532,10.313 247.780,10.768 253.846 C 11.211 259.754,11.820 262.528,13.277 265.267 C 14.353 267.292,15.200 270.247,15.200 271.981 C 15.200 274.057,15.820 275.822,17.081 277.339 C 18.137 278.608,19.165 281.160,19.426 283.155 C 19.712 285.349,20.502 287.186,21.490 287.955 C 22.370 288.640,23.340 290.575,23.645 292.255 C 23.949 293.936,24.883 295.736,25.720 296.255 C 26.581 296.791,27.453 298.523,27.731 300.254 C 28.047 302.221,28.894 303.749,30.111 304.546 C 31.162 305.235,32.000 306.576,32.000 307.568 C 32.000 308.549,32.706 309.991,33.570 310.773 C 34.433 311.554,35.562 313.500,36.078 315.097 C 36.593 316.694,38.767 319.868,40.908 322.152 C 43.048 324.436,44.800 326.632,44.800 327.033 C 44.800 327.435,45.880 328.893,47.200 330.274 C 48.520 331.655,49.600 333.107,49.600 333.499 C 49.600 333.892,50.320 334.402,51.200 334.632 C 52.159 334.883,52.800 335.723,52.800 336.731 C 52.800 338.912,67.838 354.148,71.120 355.292 C 72.448 355.755,73.742 356.788,73.996 357.587 C 74.250 358.387,75.344 359.264,76.429 359.536 C 77.513 359.808,78.400 360.573,78.400 361.235 C 78.400 361.898,79.276 362.773,80.348 363.180 C 81.419 363.587,84.303 365.738,86.756 367.960 C 89.210 370.182,91.906 372.000,92.747 372.000 C 93.589 372.000,95.295 372.851,96.539 373.891 C 97.782 374.930,99.700 376.062,100.800 376.405 C 101.900 376.749,103.260 377.684,103.823 378.483 C 104.386 379.282,106.186 380.183,107.823 380.486 C 109.460 380.788,111.593 381.882,112.562 382.918 C 113.635 384.064,115.239 384.800,116.664 384.800 C 118.149 384.800,119.410 385.410,120.112 386.468 C 120.824 387.540,122.627 388.398,125.163 388.872 C 127.332 389.277,129.847 390.289,130.753 391.121 C 131.700 391.990,134.271 392.875,136.800 393.203 C 139.220 393.516,141.745 394.253,142.412 394.840 C 144.216 396.429,150.062 397.558,156.600 397.580 C 161.214 397.596,162.400 397.845,162.400 398.800 C 162.400 399.850,167.111 400.000,200.000 400.000 C 232.889 400.000,237.600 399.850,237.600 398.800 C 237.600 397.845,238.786 397.596,243.400 397.580 C 249.938 397.558,255.784 396.429,257.588 394.840 C 258.255 394.253,260.780 393.516,263.200 393.203 C 265.729 392.875,268.300 391.990,269.247 391.121 C 270.153 390.289,272.668 389.277,274.837 388.872 C 277.373 388.398,279.176 387.540,279.888 386.468 C 280.590 385.410,281.851 384.800,283.336 384.800 C 284.761 384.800,286.365 384.064,287.438 382.918 C 288.407 381.882,290.540 380.788,292.177 380.486 C 293.814 380.183,295.614 379.282,296.177 378.483 C 296.740 377.684,298.100 376.749,299.200 376.405 C 300.300 376.062,302.218 374.930,303.461 373.891 C 304.705 372.851,306.411 372.000,307.253 372.000 C 308.094 372.000,310.790 370.182,313.244 367.960 C 315.697 365.738,318.581 363.587,319.652 363.180 C 320.724 362.773,321.600 361.898,321.600 361.235 C 321.600 360.573,322.487 359.808,323.571 359.536 C 324.656 359.264,325.750 358.387,326.004 357.587 C 326.258 356.788,327.552 355.755,328.880 355.292 C 332.162 354.148,347.200 338.912,347.200 336.731 C 347.200 335.723,347.841 334.883,348.800 334.632 C 349.680 334.402,350.400 333.892,350.400 333.499 C 350.400 333.107,351.480 331.655,352.800 330.274 C 354.120 328.893,355.200 327.435,355.200 327.033 C 355.200 326.632,356.952 324.436,359.092 322.152 C 361.233 319.868,363.407 316.694,363.922 315.097 C 364.438 313.500,365.567 311.554,366.430 310.773 C 367.294 309.991,368.000 308.549,368.000 307.568 C 368.000 306.576,368.838 305.235,369.889 304.546 C 371.106 303.749,371.953 302.221,372.269 300.254 C 372.547 298.523,373.419 296.791,374.280 296.255 C 375.117 295.736,376.051 293.936,376.355 292.255 C 376.660 290.575,377.630 288.640,378.510 287.955 C 379.498 287.186,380.288 285.349,380.574 283.155 C 380.835 281.160,381.863 278.608,382.919 277.339 C 384.180 275.822,384.800 274.057,384.800 271.981 C 384.800 270.247,385.647 267.292,386.723 265.267 C 388.180 262.528,388.789 259.754,389.232 253.846 C 389.687 247.780,390.194 245.532,391.509 243.754 C 394.074 240.285,394.163 176.961,391.608 173.165 C 390.457 171.455,389.763 168.321,389.100 161.843 C 388.387 154.870,387.810 152.410,386.492 150.735 C 385.424 149.377,384.800 147.430,384.800 145.452 C 384.800 142.297,382.936 137.600,381.683 137.600 C 381.312 137.600,380.819 135.920,380.587 133.866 C 380.317 131.471,379.596 129.678,378.576 128.866 C 377.702 128.170,376.747 126.242,376.454 124.582 C 376.152 122.875,375.234 121.137,374.340 120.582 C 373.435 120.020,372.557 118.339,372.286 116.651 C 372.025 115.029,370.954 112.896,369.906 111.912 C 368.858 110.927,368.000 109.520,368.000 108.785 C 368.000 108.049,367.278 106.795,366.397 105.997 C 365.515 105.199,364.411 103.127,363.944 101.392 C 363.424 99.459,361.773 96.953,359.681 94.919 C 357.804 93.094,355.791 90.700,355.207 89.600 C 354.624 88.500,353.483 87.130,352.673 86.555 C 351.863 85.980,351.200 84.981,351.200 84.335 C 351.200 83.689,350.300 82.818,349.200 82.400 C 347.961 81.929,347.200 81.013,347.200 79.993 C 347.200 77.652,331.669 61.830,328.739 61.187 C 327.492 60.913,326.263 60.027,326.006 59.218 C 325.550 57.782,323.326 56.407,322.612 57.121 C 321.727 58.007,323.448 60.723,325.038 60.949 C 326.140 61.106,326.893 61.856,327.049 62.951 C 327.204 64.042,327.958 64.796,329.049 64.951 C 330.140 65.106,330.894 65.860,331.049 66.951 C 331.204 68.042,331.958 68.796,333.049 68.951 C 334.140 69.106,334.894 69.860,335.049 70.951 C 335.204 72.042,335.958 72.796,337.049 72.951 C 338.286 73.127,338.874 73.846,339.053 75.400 C 339.250 77.108,339.729 77.600,341.197 77.600 C 342.550 77.600,343.162 78.113,343.344 79.400 C 343.510 80.568,344.243 81.291,345.432 81.460 C 346.725 81.643,347.402 82.408,347.732 84.060 C 348.153 86.167,348.846 86.762,350.574 86.504 C 350.889 86.456,351.385 88.214,351.677 90.409 C 352.143 93.926,352.431 94.400,354.103 94.400 C 355.570 94.400,356.000 94.834,356.000 96.313 C 356.000 97.687,356.564 98.368,358.000 98.729 C 359.761 99.171,360.000 99.659,360.000 102.815 C 360.000 106.156,360.487 106.838,362.622 106.487 C 363.506 106.342,364.442 109.763,364.734 114.200 C 364.770 114.750,365.327 115.200,365.972 115.200 C 367.499 115.200,368.800 117.693,368.800 120.619 C 368.800 122.322,369.335 123.187,370.800 123.854 C 372.500 124.629,372.800 125.303,372.800 128.346 C 372.800 131.099,373.262 132.390,374.800 133.927 C 376.431 135.558,376.800 136.711,376.800 140.174 C 376.800 143.811,377.059 144.534,378.600 145.210 C 380.251 145.935,380.419 146.606,380.629 153.327 C 380.843 160.161,380.994 160.743,382.881 161.979 L 384.903 163.304 384.652 199.189 C 384.404 234.544,384.375 235.100,382.691 236.936 C 381.314 238.439,380.912 240.097,380.618 245.501 C 380.318 251.010,379.963 252.434,378.627 253.501 C 377.558 254.355,376.831 256.170,376.504 258.800 C 376.166 261.516,375.492 263.152,374.403 263.898 C 373.482 264.528,372.800 265.892,372.800 267.103 C 372.800 270.594,371.350 274.544,369.625 275.752 C 368.616 276.459,368.000 277.785,368.000 279.251 C 368.000 280.741,367.297 282.222,366.092 283.270 C 364.971 284.244,363.977 286.222,363.683 288.063 C 363.385 289.926,362.536 291.601,361.591 292.191 C 360.716 292.738,360.000 293.611,360.000 294.131 C 360.000 294.651,359.166 296.095,358.146 297.339 C 357.127 298.582,355.828 300.758,355.260 302.173 C 354.692 303.589,353.547 304.963,352.714 305.227 C 351.881 305.492,351.200 306.383,351.200 307.209 C 351.200 308.034,350.492 309.205,349.627 309.811 C 348.763 310.417,347.773 311.655,347.427 312.563 C 346.732 314.393,340.628 321.578,335.429 326.688 C 331.406 330.642,331.412 330.636,326.901 335.200 C 324.944 337.180,322.254 339.700,320.922 340.800 C 319.590 341.900,317.401 343.790,316.058 345.000 C 314.714 346.210,313.136 347.200,312.552 347.200 C 311.967 347.200,310.706 348.100,309.750 349.200 C 308.793 350.300,307.510 351.200,306.897 351.200 C 306.285 351.200,305.194 352.100,304.474 353.200 C 303.753 354.300,302.659 355.200,302.043 355.200 C 301.427 355.200,299.853 356.100,298.546 357.200 C 297.239 358.300,295.644 359.200,295.001 359.200 C 294.359 359.200,292.880 360.084,291.714 361.164 C 290.548 362.245,288.326 363.366,286.776 363.657 C 285.225 363.948,283.602 364.849,283.169 365.659 C 282.728 366.482,281.061 367.366,279.390 367.664 C 277.746 367.958,275.602 368.925,274.626 369.814 C 273.650 370.703,271.050 371.716,268.848 372.064 C 266.646 372.412,264.098 373.392,263.186 374.241 C 262.242 375.121,259.831 375.987,257.586 376.252 C 255.418 376.509,252.644 377.456,251.422 378.355 C 249.968 379.426,247.402 380.152,244.000 380.455 C 241.140 380.710,237.540 381.412,236.000 382.015 C 230.060 384.343,224.147 384.800,200.000 384.800 C 175.853 384.800,169.940 384.343,164.000 382.015 C 162.460 381.412,158.860 380.710,156.000 380.455 C 152.705 380.161,150.025 379.421,148.685 378.435 C 147.522 377.578,144.678 376.627,142.366 376.320 C 139.912 375.994,137.528 375.128,136.638 374.238 C 135.739 373.339,133.457 372.518,131.067 372.235 C 128.415 371.921,126.320 371.108,124.993 369.878 C 123.878 368.845,122.102 368.000,121.045 368.000 C 119.988 368.000,118.331 367.153,117.362 366.118 C 116.393 365.082,114.299 363.995,112.710 363.702 C 111.120 363.409,109.174 362.456,108.386 361.584 C 107.597 360.713,106.495 360.000,105.937 360.000 C 105.379 360.000,103.905 359.149,102.661 358.109 C 101.418 357.070,99.580 355.962,98.579 355.649 C 97.577 355.335,96.186 354.206,95.487 353.139 C 94.788 352.073,93.558 351.200,92.753 351.200 C 91.949 351.200,90.795 350.492,90.189 349.627 C 89.583 348.763,88.345 347.773,87.437 347.427 C 84.557 346.333,69.600 332.840,69.600 331.337 C 69.600 330.822,69.198 330.400,68.706 330.400 C 67.780 330.400,61.600 324.568,61.600 323.695 C 61.600 323.423,59.620 321.173,57.200 318.694 C 54.780 316.216,52.800 313.693,52.800 313.089 C 52.800 312.484,51.900 311.207,50.800 310.250 C 49.700 309.294,48.800 307.914,48.800 307.184 C 48.800 306.454,47.946 305.468,46.903 304.992 C 45.859 304.517,44.754 303.125,44.446 301.900 C 44.139 300.674,43.234 299.214,42.435 298.654 C 41.636 298.095,40.740 296.639,40.443 295.419 C 40.146 294.198,39.180 292.640,38.296 291.955 C 37.335 291.210,36.509 289.362,36.239 287.355 C 35.966 285.318,35.370 284.000,34.723 284.000 C 33.361 284.000,32.000 281.473,32.000 278.945 C 32.000 277.769,31.247 276.490,30.118 275.751 C 28.631 274.777,28.137 273.562,27.766 269.968 C 27.431 266.715,26.849 265.105,25.725 264.317 C 24.668 263.577,23.969 261.835,23.593 259.008 C 23.259 256.502,22.366 254.075,21.385 253.008 C 20.087 251.597,19.655 249.818,19.356 244.645 C 19.041 239.201,18.686 237.841,17.288 236.709 C 15.625 235.363,15.596 234.825,15.342 200.671 C 15.082 165.632,15.351 161.600,17.951 161.600 C 18.909 161.600,19.187 160.071,19.371 153.800 C 19.583 146.587,19.736 145.941,21.400 145.210 C 22.881 144.560,23.202 143.781,23.211 140.810 C 23.226 135.840,23.908 133.737,25.686 133.173 C 26.750 132.835,27.203 131.935,27.211 130.146 C 27.227 126.307,28.019 124.102,29.555 123.614 C 30.446 123.332,31.196 121.832,31.668 119.388 C 32.257 116.341,32.752 115.550,34.200 115.344 C 35.788 115.119,36.000 114.625,36.000 111.160 C 36.000 107.636,36.206 107.179,38.000 106.729 C 39.752 106.289,40.000 105.793,40.000 102.729 C 40.000 99.664,40.248 99.168,42.000 98.729 C 43.436 98.368,44.000 97.687,44.000 96.313 C 44.000 94.830,44.429 94.400,45.909 94.400 C 47.555 94.400,47.892 93.910,48.352 90.840 C 48.723 88.370,49.342 87.136,50.376 86.808 C 51.196 86.547,52.238 85.269,52.692 83.967 C 53.244 82.381,54.059 81.600,55.158 81.600 C 56.376 81.600,56.800 81.084,56.800 79.600 C 56.800 78.015,57.204 77.600,58.747 77.600 C 60.276 77.600,60.748 77.128,60.947 75.400 C 61.126 73.846,61.714 73.127,62.951 72.951 C 64.042 72.796,64.796 72.042,64.951 70.951 C 65.106 69.860,65.860 69.106,66.951 68.951 C 68.042 68.796,68.796 68.042,68.951 66.951 C 69.106 65.860,69.860 65.106,70.951 64.951 C 72.042 64.796,72.796 64.042,72.951 62.951 C 73.128 61.703,73.846 61.126,75.448 60.942 C 77.216 60.739,77.643 60.326,77.448 59.005 C 77.131 56.858,76.102 56.586,73.600 57.988 " stroke="none" fill="#a82e32" fill-rule="evenodd"></path><path id="path1" d="M164.994 129.522 C 160.073 133.412,159.596 134.758,159.613 144.711 C 159.624 151.589,159.776 152.322,161.413 153.408 C 162.396 154.061,163.200 155.084,163.200 155.682 C 163.200 156.280,164.074 156.989,165.141 157.257 C 166.209 157.525,167.705 158.432,168.465 159.272 C 170.316 161.318,181.939 161.556,182.703 159.564 C 182.964 158.884,184.461 157.792,186.029 157.136 C 188.127 156.260,189.264 155.050,190.331 152.561 C 191.129 150.700,192.371 148.688,193.091 148.091 C 194.748 146.716,194.918 139.586,193.317 138.640 C 191.860 137.779,190.400 134.882,190.400 132.853 C 190.400 131.944,190.024 131.200,189.564 131.200 C 189.104 131.200,187.754 130.222,186.564 129.026 C 184.570 127.022,183.803 126.827,176.780 126.540 L 169.161 126.228 164.994 129.522 M216.200 127.225 C 215.210 127.623,214.400 128.328,214.400 128.791 C 214.400 129.255,213.491 130.048,212.381 130.554 C 211.269 131.061,210.149 132.402,209.889 133.537 C 209.629 134.672,208.510 136.948,207.402 138.595 C 205.154 141.940,205.247 146.304,207.618 148.701 C 208.325 149.415,209.510 151.260,210.252 152.800 C 211.033 154.423,212.757 156.178,214.354 156.975 C 215.869 157.731,217.417 158.901,217.794 159.575 C 218.793 161.360,230.818 161.349,231.504 159.562 C 231.765 158.881,233.064 157.946,234.389 157.484 C 235.715 157.022,236.800 156.333,236.800 155.953 C 236.800 155.573,237.487 154.618,238.327 153.831 C 240.511 151.784,241.705 144.357,240.770 138.643 C 240.351 136.089,240.007 133.794,240.005 133.541 C 240.002 133.289,238.152 131.579,235.892 129.741 L 231.785 126.400 224.892 126.451 C 221.102 126.479,217.190 126.827,216.200 127.225 M131.359 159.939 C 129.907 160.310,128.635 160.746,128.532 160.907 C 128.429 161.068,127.007 162.881,125.372 164.935 C 121.289 170.066,120.894 184.760,124.807 186.002 C 125.596 186.253,126.464 187.344,126.736 188.429 C 127.060 189.720,127.795 190.400,128.868 190.400 C 130.884 190.400,133.782 191.864,134.640 193.317 C 135.693 195.101,142.957 194.749,143.965 192.865 C 144.417 192.021,145.865 191.093,147.183 190.804 C 148.501 190.514,150.394 189.197,151.390 187.877 C 152.385 186.557,154.010 184.654,155.000 183.647 C 157.558 181.046,157.670 170.266,155.167 167.684 C 154.269 166.758,152.337 164.608,150.875 162.906 L 148.215 159.811 141.108 159.537 C 137.198 159.386,132.812 159.567,131.359 159.939 M254.073 159.735 C 251.827 160.117,247.200 163.926,247.200 165.394 C 247.200 165.789,246.300 166.894,245.200 167.850 C 242.083 170.561,242.209 180.767,245.400 183.959 C 246.610 185.169,248.224 187.084,248.987 188.214 C 249.750 189.343,251.463 190.506,252.794 190.799 C 254.125 191.091,255.583 192.021,256.035 192.865 C 257.231 195.100,264.790 195.081,266.190 192.840 C 266.726 191.981,268.461 191.036,270.046 190.739 C 271.631 190.441,273.123 189.613,273.362 188.899 C 273.602 188.185,274.721 186.812,275.849 185.850 C 277.790 184.195,277.904 183.667,277.947 176.163 L 277.992 168.227 274.854 164.714 C 270.434 159.764,263.573 158.120,254.073 159.735 M195.336 186.699 C 193.892 187.765,191.013 188.831,188.781 189.127 C 186.591 189.417,184.800 190.045,184.800 190.522 C 184.800 191.665,178.842 197.600,177.694 197.600 C 177.202 197.600,176.800 198.253,176.800 199.052 C 176.800 199.851,175.009 202.281,172.819 204.452 C 170.630 206.623,168.431 209.378,167.933 210.573 C 167.435 211.769,166.347 212.963,165.514 213.227 C 164.681 213.492,164.000 214.031,164.000 214.426 C 164.000 214.822,162.920 216.250,161.600 217.600 C 160.280 218.950,159.200 220.345,159.200 220.699 C 159.200 221.053,158.300 221.753,157.200 222.254 C 156.100 222.756,155.200 223.713,155.200 224.383 C 155.200 225.052,154.869 225.600,154.465 225.600 C 153.426 225.600,147.200 231.700,147.200 232.719 C 147.200 233.183,146.300 234.153,145.200 234.874 C 144.100 235.594,143.200 236.879,143.200 237.728 C 143.200 238.578,142.300 240.173,141.200 241.273 C 138.402 244.071,138.066 263.337,140.791 264.795 C 141.665 265.263,142.604 266.536,142.877 267.623 C 143.150 268.710,143.877 269.600,144.492 269.600 C 145.107 269.600,146.393 270.500,147.350 271.600 L 149.089 273.600 165.418 273.600 C 180.536 273.600,181.899 273.481,183.782 272.000 C 185.647 270.533,187.027 270.400,200.384 270.400 C 213.936 270.400,215.053 270.512,216.400 272.000 C 217.761 273.504,218.864 273.600,234.832 273.600 L 251.816 273.600 253.126 271.600 C 253.847 270.500,254.933 269.600,255.540 269.600 C 256.147 269.600,257.020 268.520,257.480 267.200 C 257.940 265.880,258.830 264.800,259.458 264.800 C 262.489 264.800,262.624 244.880,259.611 242.260 C 258.517 241.309,257.403 239.364,257.136 237.939 C 256.833 236.326,256.075 235.197,255.129 234.950 C 254.292 234.731,253.382 233.963,253.106 233.243 C 252.830 232.523,249.768 229.083,246.302 225.598 C 242.836 222.114,240.000 218.913,240.000 218.485 C 240.000 218.058,239.280 217.479,238.400 217.200 C 237.520 216.921,236.800 216.315,236.800 215.854 C 236.800 215.393,235.888 214.067,234.772 212.908 C 228.915 206.819,223.200 199.907,223.200 198.913 C 223.200 198.294,222.453 197.591,221.541 197.353 C 220.628 197.114,219.695 196.205,219.467 195.333 C 219.239 194.461,218.339 193.561,217.467 193.333 C 216.595 193.105,215.697 192.213,215.471 191.350 C 215.163 190.171,213.910 189.554,210.437 188.871 C 207.779 188.348,205.205 187.289,204.383 186.381 C 202.434 184.227,198.500 184.366,195.336 186.699 " stroke="none" fill="#ffffff" fill-rule="evenodd"></path><path id="path2" d="M161.129 16.400 C 160.656 18.282,160.312 18.400,155.313 18.404 C 148.184 18.410,144.000 19.606,144.000 21.638 C 144.000 23.032,143.419 23.201,138.600 23.212 C 132.882 23.225,131.600 23.662,131.600 25.600 C 131.600 26.484,130.493 26.864,127.400 27.042 C 123.543 27.264,123.200 27.444,123.200 29.242 C 123.200 30.986,122.858 31.200,120.065 31.200 C 115.788 31.200,114.500 31.809,114.970 33.607 C 115.313 34.920,114.821 35.142,111.082 35.355 C 107.076 35.584,106.784 35.742,106.547 37.800 C 106.309 39.864,106.053 40.000,102.403 40.000 C 98.976 40.000,98.481 40.215,98.256 41.800 C 98.073 43.089,97.375 43.672,95.798 43.853 C 93.945 44.067,93.669 44.397,94.056 45.940 C 94.469 47.585,94.177 47.819,91.215 48.216 C 89.050 48.507,87.230 49.397,85.927 50.804 C 84.789 52.031,83.439 52.756,82.770 52.499 C 81.902 52.166,81.600 52.677,81.600 54.482 C 81.600 56.665,81.374 56.888,79.400 56.657 C 77.435 56.427,77.227 56.629,77.450 58.542 C 77.663 60.369,77.368 60.722,75.450 60.942 C 73.846 61.126,73.128 61.703,72.951 62.951 C 72.796 64.042,72.042 64.796,70.951 64.951 C 69.860 65.106,69.106 65.860,68.951 66.951 C 68.796 68.042,68.042 68.796,66.951 68.951 C 65.860 69.106,65.106 69.860,64.951 70.951 C 64.796 72.042,64.042 72.796,62.951 72.951 C 61.714 73.127,61.126 73.846,60.947 75.400 C 60.748 77.128,60.276 77.600,58.747 77.600 C 57.204 77.600,56.800 78.015,56.800 79.600 C 56.800 81.084,56.376 81.600,55.158 81.600 C 54.059 81.600,53.244 82.381,52.692 83.967 C 52.238 85.269,51.196 86.547,50.376 86.808 C 49.342 87.136,48.723 88.370,48.352 90.840 C 47.892 93.910,47.555 94.400,45.909 94.400 C 44.429 94.400,44.000 94.830,44.000 96.313 C 44.000 97.687,43.436 98.368,42.000 98.729 C 40.248 99.168,40.000 99.664,40.000 102.729 C 40.000 105.793,39.752 106.289,38.000 106.729 C 36.206 107.179,36.000 107.636,36.000 111.160 C 36.000 114.625,35.788 115.119,34.200 115.344 C 32.752 115.550,32.257 116.341,31.668 119.388 C 31.196 121.832,30.446 123.332,29.555 123.614 C 28.019 124.102,27.227 126.307,27.211 130.146 C 27.203 131.935,26.750 132.835,25.686 133.173 C 23.908 133.737,23.226 135.840,23.211 140.810 C 23.202 143.781,22.881 144.560,21.400 145.210 C 19.736 145.941,19.583 146.587,19.371 153.800 C 19.187 160.071,18.909 161.600,17.951 161.600 C 15.351 161.600,15.082 165.632,15.342 200.671 C 15.596 234.825,15.625 235.363,17.288 236.709 C 18.686 237.841,19.041 239.201,19.356 244.645 C 19.655 249.818,20.087 251.597,21.385 253.008 C 22.366 254.075,23.259 256.502,23.593 259.008 C 23.969 261.835,24.668 263.577,25.725 264.317 C 26.849 265.105,27.431 266.715,27.766 269.968 C 28.137 273.562,28.631 274.777,30.118 275.751 C 31.247 276.490,32.000 277.769,32.000 278.945 C 32.000 281.473,33.361 284.000,34.723 284.000 C 35.370 284.000,35.966 285.318,36.239 287.355 C 36.509 289.362,37.335 291.210,38.296 291.955 C 39.180 292.640,40.146 294.198,40.443 295.419 C 40.740 296.639,41.636 298.095,42.435 298.654 C 43.234 299.214,44.139 300.674,44.446 301.900 C 44.754 303.125,45.859 304.517,46.903 304.992 C 47.946 305.468,48.800 306.454,48.800 307.184 C 48.800 307.914,49.700 309.294,50.800 310.250 C 51.900 311.207,52.800 312.484,52.800 313.089 C 52.800 313.693,54.780 316.216,57.200 318.694 C 59.620 321.173,61.600 323.423,61.600 323.695 C 61.600 324.568,67.780 330.400,68.706 330.400 C 69.198 330.400,69.600 330.822,69.600 331.337 C 69.600 332.840,84.557 346.333,87.437 347.427 C 88.345 347.773,89.583 348.763,90.189 349.627 C 90.795 350.492,91.949 351.200,92.753 351.200 C 93.558 351.200,94.788 352.073,95.487 353.139 C 96.186 354.206,97.577 355.335,98.579 355.649 C 99.580 355.962,101.418 357.070,102.661 358.109 C 103.905 359.149,105.379 360.000,105.937 360.000 C 106.495 360.000,107.597 360.713,108.386 361.584 C 109.174 362.456,111.120 363.409,112.710 363.702 C 114.299 363.995,116.393 365.082,117.362 366.118 C 118.331 367.153,119.988 368.000,121.045 368.000 C 122.102 368.000,123.878 368.845,124.993 369.878 C 126.320 371.108,128.415 371.921,131.067 372.235 C 133.457 372.518,135.739 373.339,136.638 374.238 C 137.528 375.128,139.912 375.994,142.366 376.320 C 144.678 376.627,147.522 377.578,148.685 378.435 C 150.025 379.421,152.705 380.161,156.000 380.455 C 158.860 380.710,162.460 381.412,164.000 382.015 C 169.940 384.343,175.853 384.800,200.000 384.800 C 224.147 384.800,230.060 384.343,236.000 382.015 C 237.540 381.412,241.140 380.710,244.000 380.455 C 247.402 380.152,249.968 379.426,251.422 378.355 C 252.644 377.456,255.418 376.509,257.586 376.252 C 259.831 375.987,262.242 375.121,263.186 374.241 C 264.098 373.392,266.646 372.412,268.848 372.064 C 271.050 371.716,273.650 370.703,274.626 369.814 C 275.602 368.925,277.746 367.958,279.390 367.664 C 281.061 367.366,282.728 366.482,283.169 365.659 C 283.602 364.849,285.225 363.948,286.776 363.657 C 288.326 363.366,290.548 362.245,291.714 361.164 C 292.880 360.084,294.359 359.200,295.001 359.200 C 295.644 359.200,297.239 358.300,298.546 357.200 C 299.853 356.100,301.427 355.200,302.043 355.200 C 302.659 355.200,303.753 354.300,304.474 353.200 C 305.194 352.100,306.285 351.200,306.897 351.200 C 307.510 351.200,308.793 350.300,309.750 349.200 C 310.706 348.100,311.967 347.200,312.552 347.200 C 313.136 347.200,314.714 346.210,316.058 345.000 C 317.401 343.790,319.590 341.900,320.922 340.800 C 322.254 339.700,324.892 337.232,326.786 335.315 C 331.153 330.895,331.154 330.893,335.315 326.802 C 340.622 321.583,346.726 314.408,347.427 312.563 C 347.773 311.655,348.763 310.417,349.627 309.811 C 350.492 309.205,351.200 308.034,351.200 307.209 C 351.200 306.383,351.881 305.492,352.714 305.227 C 353.547 304.963,354.692 303.589,355.260 302.173 C 355.828 300.758,357.127 298.582,358.146 297.339 C 359.166 296.095,360.000 294.651,360.000 294.131 C 360.000 293.611,360.716 292.738,361.591 292.191 C 362.536 291.601,363.385 289.926,363.683 288.063 C 363.977 286.222,364.971 284.244,366.092 283.270 C 367.297 282.222,368.000 280.741,368.000 279.251 C 368.000 277.785,368.616 276.459,369.625 275.752 C 371.350 274.544,372.800 270.594,372.800 267.103 C 372.800 265.892,373.482 264.528,374.403 263.898 C 375.492 263.152,376.166 261.516,376.504 258.800 C 376.831 256.170,377.558 254.355,378.627 253.501 C 379.963 252.434,380.318 251.010,380.618 245.501 C 380.912 240.097,381.314 238.439,382.691 236.936 C 384.375 235.100,384.404 234.544,384.652 199.189 L 384.903 163.304 382.881 161.979 C 380.994 160.743,380.843 160.161,380.629 153.327 C 380.419 146.606,380.251 145.935,378.600 145.210 C 377.059 144.534,376.800 143.811,376.800 140.174 C 376.800 136.711,376.431 135.558,374.800 133.927 C 373.262 132.390,372.800 131.099,372.800 128.346 C 372.800 125.303,372.500 124.629,370.800 123.854 C 369.335 123.187,368.800 122.322,368.800 120.619 C 368.800 117.693,367.499 115.200,365.972 115.200 C 365.327 115.200,364.770 114.750,364.734 114.200 C 364.442 109.763,363.506 106.342,362.622 106.487 C 360.487 106.838,360.000 106.156,360.000 102.815 C 360.000 99.659,359.761 99.171,358.000 98.729 C 356.564 98.368,356.000 97.687,356.000 96.313 C 356.000 94.834,355.570 94.400,354.103 94.400 C 352.431 94.400,352.143 93.926,351.677 90.409 C 351.385 88.214,350.889 86.456,350.574 86.504 C 348.846 86.762,348.153 86.167,347.732 84.060 C 347.402 82.408,346.725 81.643,345.432 81.460 C 344.243 81.291,343.510 80.568,343.344 79.400 C 343.162 78.113,342.550 77.600,341.197 77.600 C 339.729 77.600,339.250 77.108,339.053 75.400 C 338.874 73.846,338.286 73.127,337.049 72.951 C 335.958 72.796,335.204 72.042,335.049 70.951 C 334.894 69.860,334.140 69.106,333.049 68.951 C 331.958 68.796,331.204 68.042,331.049 66.951 C 330.894 65.860,330.140 65.106,329.049 64.951 C 327.958 64.796,327.204 64.042,327.049 62.951 C 326.890 61.832,326.139 61.106,324.968 60.940 C 323.702 60.761,322.999 59.996,322.693 58.465 C 322.327 56.637,321.914 56.315,320.325 56.619 C 318.699 56.929,318.400 56.670,318.400 54.947 C 318.400 53.534,317.847 52.733,316.600 52.339 C 315.610 52.026,314.330 51.103,313.756 50.288 C 313.182 49.472,311.321 48.582,309.620 48.310 C 307.236 47.929,306.417 47.379,306.048 45.908 C 305.698 44.512,305.014 44.000,303.499 44.000 C 302.069 44.000,301.560 43.659,301.852 42.897 C 302.538 41.110,300.716 40.000,297.093 40.000 C 293.993 40.000,293.685 39.814,293.453 37.800 C 293.221 35.782,292.883 35.580,289.363 35.355 C 286.143 35.149,285.406 34.795,284.783 33.155 C 284.148 31.485,283.519 31.200,280.475 31.200 C 277.388 31.200,276.877 30.959,276.656 29.400 C 276.437 27.861,275.844 27.564,272.563 27.355 C 269.340 27.149,268.607 26.796,267.981 25.149 C 267.571 24.071,266.957 23.234,266.618 23.289 C 261.610 24.104,256.000 23.058,256.000 21.309 C 256.000 19.177,252.788 18.400,243.975 18.400 C 239.734 18.400,239.334 18.243,238.871 16.400 L 238.370 14.400 200.000 14.400 L 161.630 14.400 161.129 16.400 M183.200 122.400 C 184.215 123.280,185.500 124.000,186.055 124.000 C 187.173 124.000,193.600 129.725,193.600 130.720 C 193.600 131.065,194.320 132.263,195.200 133.382 C 200.087 139.594,196.124 155.204,188.311 160.516 C 181.960 164.834,168.866 165.394,164.000 161.555 C 162.900 160.687,161.210 159.574,160.243 159.080 C 159.277 158.587,157.958 156.861,157.312 155.246 C 156.666 153.631,155.566 151.836,154.868 151.257 C 152.848 149.580,153.079 137.678,155.184 135.002 C 156.055 133.894,157.140 132.011,157.594 130.817 C 158.048 129.622,159.135 128.458,160.010 128.229 C 160.884 128.001,161.600 127.297,161.600 126.666 C 161.600 126.035,162.950 124.987,164.600 124.338 C 166.250 123.689,168.500 122.637,169.600 122.000 C 172.720 120.195,180.936 120.436,183.200 122.400 M233.165 123.115 C 237.647 125.376,243.200 130.334,243.200 132.076 C 243.200 132.555,243.920 133.863,244.800 134.982 C 246.045 136.565,246.400 138.227,246.400 142.480 C 246.400 163.992,218.004 172.564,206.126 154.639 C 201.442 147.569,203.514 128.000,208.947 128.000 C 209.312 128.000,210.393 127.100,211.350 126.000 C 212.306 124.900,213.524 124.000,214.056 124.000 C 214.588 124.000,215.873 123.292,216.911 122.427 C 219.953 119.892,227.401 120.208,233.165 123.115 M147.292 155.090 C 148.341 155.909,149.961 156.818,150.891 157.109 C 158.925 159.624,163.848 182.581,157.426 187.583 C 156.850 188.032,155.745 189.390,154.971 190.600 C 154.196 191.810,153.145 192.800,152.633 192.800 C 152.122 192.800,150.841 193.610,149.788 194.600 C 147.206 197.027,130.723 197.350,128.259 195.022 C 127.456 194.264,125.270 192.299,123.400 190.655 C 121.530 189.011,119.998 187.111,119.995 186.433 C 119.992 185.755,119.274 184.120,118.400 182.800 C 116.509 179.945,116.165 171.949,117.861 170.254 C 118.444 169.670,119.163 167.983,119.459 166.504 C 120.049 163.554,124.905 158.172,127.800 157.259 C 128.790 156.947,129.600 156.345,129.600 155.920 C 129.600 153.323,144.154 152.640,147.292 155.090 M271.624 156.381 C 273.929 157.911,276.025 159.711,276.282 160.381 C 276.539 161.052,277.243 161.600,277.846 161.600 C 279.048 161.600,280.800 164.853,280.800 167.085 C 280.800 167.860,281.329 169.193,281.975 170.047 C 286.001 175.370,280.891 188.133,272.303 194.206 C 265.937 198.707,248.096 196.490,245.700 190.900 C 245.535 190.515,244.752 189.552,243.961 188.761 C 235.973 180.773,239.529 163.017,250.304 157.088 C 251.792 156.270,253.772 155.155,254.704 154.612 C 258.435 152.438,267.038 153.337,271.624 156.381 M212.387 184.787 C 213.331 185.674,214.470 186.400,214.919 186.400 C 215.368 186.400,216.698 187.480,217.874 188.800 C 219.050 190.120,220.345 191.200,220.752 191.200 C 221.159 191.200,221.721 191.920,222.000 192.800 C 222.279 193.680,222.982 194.400,223.560 194.400 C 224.139 194.400,225.825 196.023,227.307 198.007 C 228.788 199.991,231.800 203.540,234.000 205.894 C 236.200 208.249,238.577 210.888,239.283 211.760 C 239.988 212.631,244.038 217.078,248.283 221.640 C 252.527 226.203,256.000 230.204,256.000 230.531 C 256.000 230.859,256.810 232.016,257.800 233.102 C 261.194 236.826,263.104 239.739,263.678 242.068 C 263.994 243.351,264.816 245.269,265.504 246.331 C 267.541 249.474,267.216 259.110,264.978 261.956 C 264.000 263.199,263.198 264.797,263.196 265.508 C 263.190 267.531,254.573 276.000,252.520 276.000 C 252.001 276.000,250.233 276.720,248.591 277.600 C 244.678 279.697,236.223 279.803,232.560 277.800 C 228.667 275.671,171.261 275.667,167.600 277.795 C 164.000 279.888,153.372 279.766,150.618 277.600 C 149.500 276.720,148.041 276.000,147.376 276.000 C 146.712 276.000,145.410 275.285,144.484 274.410 C 139.175 269.399,136.807 266.654,136.804 265.508 C 136.802 264.797,135.990 263.186,135.000 261.927 C 132.677 258.974,132.352 248.328,134.511 245.884 C 135.232 245.068,136.074 243.214,136.382 241.764 C 136.691 240.314,137.811 238.192,138.871 237.047 C 139.932 235.903,140.800 234.607,140.800 234.167 C 140.800 233.244,141.549 232.394,150.462 223.200 C 154.087 219.460,159.235 213.880,161.901 210.800 C 164.566 207.720,167.659 204.271,168.774 203.135 C 169.888 202.000,171.520 200.096,172.400 198.904 C 173.280 197.712,174.454 196.302,175.009 195.769 C 180.766 190.239,182.400 188.522,182.400 188.001 C 182.400 183.385,207.976 180.644,212.387 184.787 " stroke="none" fill="#a82d34" fill-rule="evenodd"></path><path id="path3" d="M169.600 122.000 C 168.500 122.637,166.250 123.689,164.600 124.338 C 162.950 124.987,161.600 126.035,161.600 126.666 C 161.600 127.297,160.884 128.001,160.010 128.229 C 159.135 128.458,158.048 129.622,157.594 130.817 C 157.140 132.011,156.055 133.894,155.184 135.002 C 153.079 137.678,152.848 149.580,154.868 151.257 C 155.566 151.836,156.666 153.631,157.312 155.246 C 157.958 156.861,159.277 158.587,160.243 159.080 C 161.210 159.574,162.900 160.687,164.000 161.555 C 168.866 165.394,181.960 164.834,188.311 160.516 C 196.124 155.204,200.087 139.594,195.200 133.382 C 194.320 132.263,193.600 131.065,193.600 130.720 C 193.600 129.725,187.173 124.000,186.055 124.000 C 185.500 124.000,184.215 123.280,183.200 122.400 C 180.936 120.436,172.720 120.195,169.600 122.000 M216.911 122.427 C 215.873 123.292,214.588 124.000,214.056 124.000 C 213.524 124.000,212.306 124.900,211.350 126.000 C 210.393 127.100,209.312 128.000,208.947 128.000 C 203.514 128.000,201.442 147.569,206.126 154.639 C 218.004 172.564,246.400 163.992,246.400 142.480 C 246.400 138.227,246.045 136.565,244.800 134.982 C 243.920 133.863,243.200 132.555,243.200 132.076 C 243.200 125.300,222.557 117.724,216.911 122.427 M183.252 124.910 C 192.053 127.547,198.461 142.715,194.021 150.400 C 193.386 151.500,192.282 153.490,191.570 154.822 C 185.499 166.166,164.911 164.425,158.205 152.000 C 149.679 136.201,165.137 119.483,183.252 124.910 M231.460 125.118 C 246.187 129.550,248.631 149.796,235.569 159.154 C 226.423 165.707,212.115 162.040,207.000 151.831 C 198.986 135.836,213.696 119.772,231.460 125.118 M131.400 154.425 C 130.410 154.823,129.600 155.496,129.600 155.920 C 129.600 156.345,128.790 156.947,127.800 157.259 C 124.905 158.172,120.049 163.554,119.459 166.504 C 119.163 167.983,118.444 169.670,117.861 170.254 C 116.165 171.949,116.509 179.945,118.400 182.800 C 119.274 184.120,119.992 185.755,119.995 186.433 C 119.998 187.111,121.530 189.011,123.400 190.655 C 125.270 192.299,127.456 194.264,128.259 195.022 C 130.723 197.350,147.206 197.027,149.788 194.600 C 150.841 193.610,152.122 192.800,152.633 192.800 C 153.145 192.800,154.196 191.810,154.971 190.600 C 155.745 189.390,156.850 188.032,157.426 187.583 C 163.848 182.581,158.925 159.624,150.891 157.109 C 149.961 156.818,148.341 155.909,147.292 155.090 C 145.196 153.453,134.891 153.022,131.400 154.425 M254.704 154.612 C 253.772 155.155,251.792 156.270,250.304 157.088 C 239.529 163.017,235.973 180.773,243.961 188.761 C 244.752 189.552,245.535 190.515,245.700 190.900 C 248.096 196.490,265.937 198.707,272.303 194.206 C 280.891 188.133,286.001 175.370,281.975 170.047 C 281.329 169.193,280.800 167.860,280.800 167.085 C 280.800 164.853,279.048 161.600,277.846 161.600 C 277.243 161.600,276.539 161.052,276.282 160.381 C 274.348 155.341,260.024 151.511,254.704 154.612 M147.867 158.255 C 165.775 166.858,160.143 193.925,140.212 195.048 C 118.985 196.243,111.139 166.795,130.400 158.220 C 138.297 154.704,140.484 154.708,147.867 158.255 M268.591 157.674 C 270.456 158.513,272.202 159.200,272.470 159.200 C 273.141 159.200,277.537 163.964,278.308 165.528 C 285.147 179.388,275.822 195.200,260.810 195.200 C 255.234 195.200,248.063 191.916,246.265 188.539 C 245.755 187.582,244.903 186.440,244.372 186.000 C 241.708 183.797,240.769 174.121,242.695 168.732 C 246.389 158.400,258.609 153.182,268.591 157.674 M193.200 182.893 C 190.413 183.312,182.400 187.102,182.400 188.001 C 182.400 188.522,180.766 190.239,175.009 195.769 C 174.454 196.302,173.280 197.712,172.400 198.904 C 171.520 200.096,169.888 202.000,168.774 203.135 C 167.659 204.271,164.566 207.720,161.901 210.800 C 159.235 213.880,154.087 219.460,150.462 223.200 C 141.549 232.394,140.800 233.244,140.800 234.167 C 140.800 234.607,139.932 235.903,138.871 237.047 C 137.811 238.192,136.691 240.314,136.382 241.764 C 136.074 243.214,135.232 245.068,134.511 245.884 C 132.352 248.328,132.677 258.974,135.000 261.927 C 135.990 263.186,136.802 264.797,136.804 265.508 C 136.807 266.654,139.175 269.399,144.484 274.410 C 145.410 275.285,146.712 276.000,147.376 276.000 C 148.041 276.000,149.500 276.720,150.618 277.600 C 153.372 279.766,164.000 279.888,167.600 277.795 C 171.261 275.667,228.667 275.671,232.560 277.800 C 236.223 279.803,244.678 279.697,248.591 277.600 C 250.233 276.720,252.001 276.000,252.520 276.000 C 254.573 276.000,263.190 267.531,263.196 265.508 C 263.198 264.797,264.000 263.199,264.978 261.956 C 267.216 259.110,267.541 249.474,265.504 246.331 C 264.816 245.269,263.994 243.351,263.678 242.068 C 263.104 239.739,261.194 236.826,257.800 233.102 C 256.810 232.016,256.000 230.859,256.000 230.531 C 256.000 230.204,252.527 226.203,248.283 221.640 C 244.038 217.078,239.988 212.631,239.283 211.760 C 238.577 210.888,236.200 208.249,234.000 205.894 C 231.800 203.540,228.788 199.991,227.307 198.007 C 225.825 196.023,224.139 194.400,223.560 194.400 C 222.982 194.400,222.279 193.680,222.000 192.800 C 221.721 191.920,221.159 191.200,220.752 191.200 C 220.345 191.200,219.050 190.120,217.874 188.800 C 216.698 187.480,215.368 186.400,214.919 186.400 C 214.470 186.400,213.331 185.674,212.387 184.787 C 210.628 183.135,199.138 182.001,193.200 182.893 M209.900 186.142 C 213.730 187.815,216.328 189.869,221.796 195.542 C 232.163 206.298,232.262 206.407,236.388 211.600 C 239.647 215.702,249.613 226.664,256.417 233.630 C 257.508 234.747,258.400 235.983,258.400 236.379 C 258.400 236.774,259.094 237.840,259.942 238.748 C 266.325 245.587,264.771 262.807,257.118 270.044 C 250.386 276.409,246.604 276.966,224.800 274.800 C 209.782 273.308,191.643 273.306,175.600 274.794 C 152.589 276.928,149.480 276.470,142.879 269.974 C 138.029 265.201,136.355 260.815,136.477 253.200 C 136.557 248.156,138.763 239.200,139.925 239.200 C 140.300 239.200,141.048 238.133,141.588 236.829 C 142.128 235.525,145.975 230.935,150.137 226.629 C 157.130 219.393,163.086 212.769,171.479 202.892 C 181.675 190.894,186.225 187.248,194.400 184.526 C 197.973 183.336,205.206 184.090,209.900 186.142 " stroke="none" fill="#b98083" fill-rule="evenodd"></path><path id="path4" d="M168.102 125.198 C 154.470 129.450,151.729 150.189,163.690 158.582 C 172.614 164.844,187.264 162.868,191.570 154.822 C 192.282 153.490,193.386 151.500,194.021 150.400 C 194.701 149.223,195.181 146.254,195.188 143.188 C 195.220 128.971,182.689 120.648,168.102 125.198 M217.166 125.061 C 202.639 130.666,200.530 150.442,213.534 159.111 C 229.510 169.761,250.062 153.347,242.607 135.891 C 238.393 126.023,227.116 121.222,217.166 125.061 M186.564 129.026 C 187.754 130.222,189.104 131.200,189.564 131.200 C 190.024 131.200,190.400 131.944,190.400 132.853 C 190.400 134.882,191.860 137.779,193.317 138.640 C 194.918 139.586,194.748 146.716,193.091 148.091 C 192.371 148.688,191.129 150.700,190.331 152.561 C 189.264 155.050,188.127 156.260,186.029 157.136 C 184.461 157.792,182.964 158.884,182.703 159.564 C 181.939 161.556,170.316 161.318,168.465 159.272 C 167.705 158.432,166.209 157.525,165.141 157.257 C 164.074 156.989,163.200 156.280,163.200 155.682 C 163.200 155.084,162.396 154.061,161.413 153.408 C 159.776 152.322,159.624 151.589,159.613 144.711 C 159.596 134.758,160.073 133.412,164.994 129.522 L 169.161 126.228 176.780 126.540 C 183.803 126.827,184.570 127.022,186.564 129.026 M235.892 129.741 C 238.152 131.579,240.002 133.289,240.005 133.541 C 240.007 133.794,240.351 136.089,240.770 138.643 C 241.705 144.357,240.511 151.784,238.327 153.831 C 237.487 154.618,236.800 155.573,236.800 155.953 C 236.800 156.333,235.715 157.022,234.389 157.484 C 233.064 157.946,231.765 158.881,231.504 159.562 C 230.818 161.349,218.793 161.360,217.794 159.575 C 217.417 158.901,215.869 157.731,214.354 156.975 C 212.757 156.178,211.033 154.423,210.252 152.800 C 209.510 151.260,208.325 149.415,207.618 148.701 C 205.247 146.304,205.154 141.940,207.402 138.595 C 208.510 136.948,209.629 134.672,209.889 133.537 C 210.149 132.402,211.269 131.061,212.381 130.554 C 213.491 130.048,214.400 129.255,214.400 128.791 C 214.400 127.278,217.875 126.502,224.892 126.451 L 231.785 126.400 235.892 129.741 M136.000 155.952 C 122.701 160.371,117.434 168.696,120.366 180.661 C 126.177 204.373,159.872 197.901,158.256 173.383 C 157.563 162.864,144.943 152.980,136.000 155.952 M258.800 156.021 C 251.244 157.464,244.947 162.434,242.695 168.732 C 240.769 174.121,241.708 183.797,244.372 186.000 C 244.903 186.440,245.755 187.582,246.265 188.539 C 248.063 191.916,255.234 195.200,260.810 195.200 C 275.822 195.200,285.147 179.388,278.308 165.528 C 277.537 163.964,273.141 159.200,272.470 159.200 C 272.202 159.200,270.456 158.513,268.591 157.674 C 264.505 155.835,261.993 155.411,258.800 156.021 M150.875 162.906 C 152.337 164.608,154.269 166.758,155.167 167.684 C 157.670 170.266,157.558 181.046,155.000 183.647 C 154.010 184.654,152.385 186.557,151.390 187.877 C 150.394 189.197,148.501 190.514,147.183 190.804 C 145.865 191.093,144.417 192.021,143.965 192.865 C 142.957 194.749,135.693 195.101,134.640 193.317 C 133.782 191.864,130.884 190.400,128.868 190.400 C 127.795 190.400,127.060 189.720,126.736 188.429 C 126.464 187.344,125.596 186.253,124.807 186.002 C 120.894 184.760,121.289 170.066,125.372 164.935 C 127.007 162.881,128.429 161.068,128.532 160.907 C 129.154 159.935,134.975 159.300,141.108 159.537 L 148.215 159.811 150.875 162.906 M270.560 160.505 C 271.196 160.887,273.128 162.781,274.854 164.714 L 277.992 168.227 277.947 176.163 C 277.904 183.667,277.790 184.195,275.849 185.850 C 274.721 186.812,273.602 188.185,273.362 188.899 C 273.123 189.613,271.631 190.441,270.046 190.739 C 268.461 191.036,266.726 191.981,266.190 192.840 C 264.790 195.081,257.231 195.100,256.035 192.865 C 255.583 192.021,254.125 191.091,252.794 190.799 C 251.463 190.506,249.750 189.343,248.987 188.214 C 248.224 187.084,246.610 185.169,245.400 183.959 C 242.209 180.767,242.083 170.561,245.200 167.850 C 246.300 166.894,247.200 165.789,247.200 165.394 C 247.200 163.926,251.827 160.117,254.073 159.735 C 257.500 159.153,269.220 159.700,270.560 160.505 M194.400 184.526 C 186.225 187.248,181.675 190.894,171.479 202.892 C 163.086 212.769,157.130 219.393,150.137 226.629 C 145.975 230.935,142.128 235.525,141.588 236.829 C 141.048 238.133,140.300 239.200,139.925 239.200 C 138.763 239.200,136.557 248.156,136.477 253.200 C 136.355 260.815,138.029 265.201,142.879 269.974 C 149.480 276.470,152.589 276.928,175.600 274.794 C 191.643 273.306,209.782 273.308,224.800 274.800 C 246.604 276.966,250.386 276.409,257.118 270.044 C 264.771 262.807,266.325 245.587,259.942 238.748 C 259.094 237.840,258.400 236.774,258.400 236.379 C 258.400 235.983,257.508 234.747,256.417 233.630 C 249.613 226.664,239.647 215.702,236.388 211.600 C 232.262 206.407,232.163 206.298,221.796 195.542 C 212.238 185.625,202.662 181.775,194.400 184.526 M204.383 186.381 C 205.205 187.289,207.779 188.348,210.437 188.871 C 213.910 189.554,215.163 190.171,215.471 191.350 C 215.697 192.213,216.595 193.105,217.467 193.333 C 218.339 193.561,219.239 194.461,219.467 195.333 C 219.695 196.205,220.628 197.114,221.541 197.353 C 222.453 197.591,223.200 198.294,223.200 198.913 C 223.200 199.907,228.915 206.819,234.772 212.908 C 235.888 214.067,236.800 215.393,236.800 215.854 C 236.800 216.315,237.520 216.921,238.400 217.200 C 239.280 217.479,240.000 218.058,240.000 218.485 C 240.000 218.913,242.836 222.114,246.302 225.598 C 249.768 229.083,252.830 232.523,253.106 233.243 C 253.382 233.963,254.292 234.731,255.129 234.950 C 256.075 235.197,256.833 236.326,257.136 237.939 C 257.403 239.364,258.517 241.309,259.611 242.260 C 262.624 244.880,262.489 264.800,259.458 264.800 C 258.830 264.800,257.940 265.880,257.480 267.200 C 257.020 268.520,256.147 269.600,255.540 269.600 C 254.933 269.600,253.847 270.500,253.126 271.600 L 251.816 273.600 234.832 273.600 C 218.864 273.600,217.761 273.504,216.400 272.000 C 215.053 270.512,213.936 270.400,200.384 270.400 C 187.027 270.400,185.647 270.533,183.782 272.000 C 181.899 273.481,180.536 273.600,165.418 273.600 L 149.089 273.600 147.350 271.600 C 146.393 270.500,145.107 269.600,144.492 269.600 C 143.877 269.600,143.150 268.710,142.877 267.623 C 142.604 266.536,141.665 265.263,140.791 264.795 C 138.066 263.337,138.402 244.071,141.200 241.273 C 142.300 240.173,143.200 238.578,143.200 237.728 C 143.200 236.879,144.100 235.594,145.200 234.874 C 146.300 234.153,147.200 233.183,147.200 232.719 C 147.200 231.700,153.426 225.600,154.465 225.600 C 154.869 225.600,155.200 225.052,155.200 224.383 C 155.200 223.713,156.100 222.756,157.200 222.254 C 158.300 221.753,159.200 221.053,159.200 220.699 C 159.200 220.345,160.280 218.950,161.600 217.600 C 162.920 216.250,164.000 214.822,164.000 214.426 C 164.000 214.031,164.681 213.492,165.514 213.227 C 166.347 212.963,167.435 211.769,167.933 210.573 C 168.431 209.378,170.630 206.623,172.819 204.452 C 175.009 202.281,176.800 199.851,176.800 199.052 C 176.800 198.253,177.202 197.600,177.694 197.600 C 178.842 197.600,184.800 191.665,184.800 190.522 C 184.800 190.045,186.591 189.417,188.781 189.127 C 191.013 188.831,193.892 187.765,195.336 186.699 C 198.500 184.366,202.434 184.227,204.383 186.381 " stroke="none" fill="#e4cfd0" fill-rule="evenodd"></path></g></svg>